<mxfile host="app.diagrams.net" modified="2020-06-22T13:29:03.245Z" agent="5.0 (Macintosh; Intel Mac OS X 10_14_6) AppleWebKit/537.36 (KHTML, like Gecko) Chrome/83.0.4103.106 Safari/537.36" etag="nMHked00VNqGWOHwoCnE" version="13.3.0" type="github">
  <diagram id="d_TtvwyaBQ2j3ashljvY" name="Page-1">
    <mxGraphModel dx="2006" dy="1064" grid="1" gridSize="10" guides="1" tooltips="1" connect="1" arrows="1" fold="1" page="1" pageScale="1" pageWidth="827" pageHeight="1169" math="0" shadow="0">
      <root>
        <mxCell id="0" />
        <mxCell id="1" parent="0" />
      </root>
    </mxGraphModel>
  </diagram>
</mxfile>
